<svg width="30" height="30" viewBox="0 0 30 30" fill="none" xmlns="http://www.w3.org/2000/svg">
<rect width="30" height="30" rx="4" fill="url(#paint0_linear_57_98)"/>
<path d="M21.7361 10.1198C21.7027 10.115 21.2946 10.7112 20.6253 11.6821C20.0909 12.4572 19.7883 12.5981 19.5356 12.8647C19.2228 13.1947 18.886 13.5089 18.6459 13.7484C18.4084 13.9853 18.1934 14.1476 17.8709 14.4392C17.092 15.1433 16.4777 15.5849 16.3085 15.6924C15.7787 16.029 15.2718 16.3555 14.7895 16.648C14.5185 16.8124 14.176 16.9197 13.9048 17.0049C13.6619 17.0811 13.4573 17.2531 13.1797 17.3927C12.9167 17.5251 12.584 17.6008 12.2604 17.7538C12.0548 17.851 11.784 17.9033 11.5447 18.0114C11.2848 18.1286 10.907 18.2698 10.5662 18.4297C10.2328 18.5861 9.85307 18.669 9.51732 18.8002C8.68678 19.1247 8.1751 19.2428 7.83745 19.3655C7.50897 19.4849 7.14682 19.5697 6.91003 19.6028C6.54852 19.6534 6.24106 19.7815 5.96546 19.8375C5.70763 19.8953 5.49017 19.9778 5.22739 20.0726C5.16272 20.1014 5.10748 20.131 4.99999 20.1543" stroke="#FFAC2F" stroke-width="2" stroke-linecap="round"/>
<path d="M17.0025 16.9802C16.6668 16.5767 15.9615 15.7227 15.6767 15.4164C15.5495 15.2798 15.3252 14.9904 15.0191 14.6645C14.8227 14.4553 14.3657 14.0077 13.6192 13.2808C12.9223 12.6023 12.4483 12.3378 12.3411 12.2474C11.8914 11.8681 11.1485 11.6823 10.875 11.5498C10.6713 11.451 10.4076 11.3332 10.1418 11.2009C10.0373 11.1489 9.23749 11.0164 8.0758 10.8431C7.66516 10.7758 7.61767 10.7505 7.52645 10.728C7.43523 10.7055 7.30171 10.6866 7.16415 10.6672" stroke="#FFAC2F" stroke-width="2" stroke-linecap="round"/>
<path d="M21.3869 10.6017C21.3442 10.7836 21.2301 11.106 21.1066 11.9175C21.0551 12.2557 21.1958 12.797 21.412 13.6387C21.5149 14.0391 21.7651 14.6989 21.9825 15.2435C22.3669 16.2064 22.6738 16.7069 22.8601 17.0242C23.4249 17.9859 23.6063 18.3855 23.8518 18.7125C23.9953 18.9114 24.1128 19.0615 24.202 19.1588C24.2463 19.2123 24.2886 19.2743 24.3322 19.3382" stroke="#FFAC2F" stroke-width="2" stroke-linecap="round"/>
<defs>
<linearGradient id="paint0_linear_57_98" x1="-3.5" y1="-1" x2="49.8625" y2="59.8344" gradientUnits="userSpaceOnUse">
<stop offset="0.220351" stop-color="#0E4C94"/>
<stop offset="1" stop-color="white"/>
</linearGradient>
</defs>
</svg>
